<!DOCTYPE svg PUBLIC "-//W3C//DTD SVG 20010904//EN" "http://www.w3.org/TR/2001/REC-SVG-20010904/DTD/svg10.dtd">
<svg version="1.0" xmlns="http://www.w3.org/2000/svg" width="683px" height="881px" viewBox="0 0 6830 8810" preserveAspectRatio="xMidYMid meet">
<g id="layer1" fill="#000000" stroke="none">
 <path d="M3142 8405 l-184 -93 -34 -68 c-19 -37 -34 -73 -34 -80 0 -7 -13 -38 -30 -69 -16 -31 -30 -63 -30 -70 0 -7 -13 -39 -30 -70 -16 -31 -30 -70 -30 -85 0 -16 -4 -32 -10 -35 -5 -3 -10 -30 -10 -60 0 -30 -4 -57 -10 -60 -5 -3 -10 -30 -10 -60 0 -30 -4 -57 -10 -60 -5 -3 -10 -30 -10 -60 0 -30 -4 -57 -10 -60 -5 -3 -10 -30 -10 -60 0 -30 -4 -57 -10 -60 -5 -3 -10 -26 -10 -50 0 -24 -4 -47 -10 -50 -5 -3 -10 -30 -10 -60 0 -30 -4 -57 -10 -60 -5 -3 -10 -30 -10 -60 0 -30 -4 -57 -10 -60 -5 -3 -10 -30 -10 -60 0 -30 -4 -57 -10 -60 -5 -3 -10 -26 -10 -50 0 -24 -4 -47 -10 -50 -5 -3 -10 -30 -10 -60 0 -30 -4 -57 -10 -60 -5 -3 -10 -30 -10 -60 0 -30 -4 -57 -10 -60 -5 -3 -10 -30 -10 -60 0 -30 -4 -57 -10 -60 -5 -3 -10 -29 -10 -56 0 -29 -7 -60 -16 -74 -15 -23 -23 -25 -90 -25 -40 0 -76 5 -79 10 -4 6 -82 10 -200 10 -118 0 -196 4 -200 10 -3 6 -48 10 -100 10 -77 0 -100 -4 -134 -22 -23 -12 -41 -25 -41 -30 0 -4 -6 -8 -13 -8 -7 0 -22 -8 -33 -17 -10 -10 -31 -24 -46 -32 -16 -8 -28 -18 -28 -23 0 -4 -6 -8 -13 -8 -7 0 -22 -8 -33 -18 -10 -9 -40 -28 -66 -41 -27 -13 -48 -28 -48 -33 0 -4 -6 -8 -13 -8 -7 0 -22 -8 -33 -17 -10 -10 -31 -24 -46 -32 -16 -8 -28 -18 -28 -23 0 -4 -6 -8 -13 -8 -7 0 -22 -8 -33 -17 -11 -10 -29 -23 -40 -29 -18 -10 -174 -305 -174 -329 0 -6 -27 -65 -60 -130 -33 -65 -60 -131 -60 -146 0 -15 -4 -31 -10 -34 -5 -3 -10 -26 -10 -50 0 -24 -4 -47 -10 -50 -5 -3 -10 -30 -10 -60 0 -30 -4 -57 -10 -60 -5 -3 -10 -26 -10 -50 0 -24 -4 -47 -10 -50 -6 -3 -10 -26 -10 -50 0 -24 -4 -47 -10 -50 -6 -3 -10 -26 -10 -50 0 -24 -4 -47 -10 -50 -5 -3 -10 -30 -10 -60 0 -30 -4 -57 -10 -60 -5 -3 -10 -26 -10 -50 0 -24 -4 -47 -10 -50 -6 -3 -10 -52 -10 -110 0 -58 -4 -107 -10 -110 -6 -4 -10 -75 -10 -180 0 -105 -4 -176 -10 -180 -6 -4 -10 -75 -10 -180 0 -105 -4 -176 -10 -180 -13 -8 -13 -242 0 -250 5 -3 10 -30 10 -60 0 -30 4 -57 10 -60 5 -3 10 -30 10 -60 0 -30 5 -57 10 -60 6 -3 10 -26 10 -50 0 -24 5 -47 10 -50 6 -3 10 -30 10 -60 0 -30 5 -57 10 -60 6 -3 10 -30 10 -60 0 -30 5 -57 10 -60 6 -3 10 -30 10 -60 0 -30 5 -57 10 -60 6 -3 10 -15 10 -25 0 -23 35 -88 59 -110 9 -8 22 -27 30 -42 8 -16 18 -28 23 -28 4 0 8 -6 8 -14 0 -7 12 -26 28 -42 15 -16 33 -42 41 -57 8 -15 18 -27 23 -27 4 0 8 -6 8 -13 0 -7 9 -23 20 -35 11 -12 20 -25 20 -30 0 -5 12 -22 28 -38 15 -16 33 -41 41 -56 7 -14 34 -37 60 -49 25 -13 52 -29 59 -36 7 -7 30 -20 50 -30 20 -10 46 -25 56 -35 11 -10 26 -18 33 -18 7 0 13 -4 13 -8 0 -5 27 -23 61 -40 67 -34 85 -32 111 17 7 14 34 47 61 74 26 27 47 53 47 58 0 5 18 28 40 50 22 23 40 45 40 50 0 5 22 32 50 60 27 28 50 55 50 60 0 5 22 32 50 60 27 28 50 55 50 60 0 6 9 19 20 31 19 21 20 36 20 494 0 305 4 475 10 479 6 3 10 17 10 30 0 13 5 27 10 30 6 3 10 17 10 30 0 13 5 27 10 30 6 3 10 17 10 30 0 13 5 27 10 30 6 3 10 17 10 30 0 13 5 27 10 30 6 3 10 15 10 26 0 39 24 50 101 47 l72 -3 34 -65 c19 -36 38 -67 41 -70 17 -13 72 -136 72 -161 0 -15 5 -31 10 -34 6 -3 10 -35 10 -70 0 -35 5 -67 10 -70 6 -3 10 -35 10 -70 0 -35 5 -67 10 -70 6 -3 10 -39 10 -80 0 -41 5 -77 10 -80 6 -3 10 -35 10 -70 0 -35 5 -67 10 -70 6 -4 10 -55 10 -120 0 -65 4 -116 10 -120 6 -4 10 -75 10 -180 0 -105 4 -176 10 -180 6 -4 10 -75 10 -180 0 -105 4 -176 10 -180 6 -4 10 -75 10 -180 0 -105 4 -176 10 -180 6 -4 10 -75 10 -180 0 -105 4 -176 10 -180 6 -4 10 -75 10 -180 0 -105 4 -176 10 -180 6 -3 10 -48 10 -100 l0 -93 46 -46 c25 -25 50 -46 55 -46 5 0 32 -23 60 -50 28 -28 57 -50 65 -50 8 0 14 -4 14 -8 0 -5 21 -20 48 -33 26 -13 56 -32 66 -41 11 -10 26 -18 33 -18 7 0 13 -4 13 -8 0 -5 21 -20 47 -33 27 -13 50 -27 53 -30 13 -18 84 -49 110 -49 16 0 32 -4 35 -10 3 -5 30 -10 60 -10 30 0 57 -4 60 -10 3 -5 35 -10 70 -10 35 0 67 -4 70 -10 3 -5 30 -10 60 -10 30 0 57 -4 60 -10 3 -5 24 -10 45 -10 36 0 47 7 125 85 47 47 85 90 85 95 0 6 41 51 90 101 l90 90 0 754 c0 492 3 756 10 760 6 4 10 55 10 120 0 65 4 116 10 120 6 4 10 55 10 120 0 65 4 116 10 120 6 4 10 55 10 120 0 65 4 116 10 120 6 4 10 55 10 120 0 65 4 116 10 120 13 8 13 182 0 190 -21 13 -10 54 20 72 17 9 30 21 30 25 0 4 6 8 14 8 7 0 26 12 42 27 47 44 82 59 104 45 11 -7 36 -12 55 -12 54 0 105 -33 105 -69 0 -11 5 -23 10 -26 6 -3 10 -17 10 -30 0 -13 5 -27 10 -30 6 -3 10 -17 10 -30 0 -13 5 -27 10 -30 6 -3 10 -17 10 -30 0 -13 5 -27 10 -30 6 -3 10 -21 10 -40 0 -19 5 -37 10 -40 6 -3 10 -17 10 -30 0 -13 5 -27 10 -30 6 -3 10 -17 10 -30 0 -13 5 -27 10 -30 6 -3 10 -17 10 -30 0 -13 5 -27 10 -30 6 -3 10 -17 10 -30 0 -13 5 -27 10 -30 6 -3 10 -21 10 -40 0 -19 5 -37 10 -40 6 -3 10 -17 10 -30 0 -13 5 -27 10 -30 6 -3 10 -21 10 -40 0 -19 5 -37 10 -40 6 -3 10 -17 10 -30 0 -13 5 -27 10 -30 6 -3 10 -21 10 -40 0 -19 5 -37 10 -40 6 -3 10 -14 10 -25 0 -10 14 -44 30 -75 17 -31 30 -62 30 -68 0 -7 16 -44 36 -84 l36 -73 63 0 c35 0 67 -4 70 -10 4 -6 55 -10 120 -10 65 0 116 -4 120 -10 3 -5 46 -10 95 -10 49 0 92 5 95 10 3 6 30 10 60 10 30 0 57 5 60 10 3 6 26 10 50 10 24 0 47 4 50 10 3 6 17 10 30 10 18 0 29 11 49 52 14 29 26 58 26 65 0 7 9 28 20 48 11 20 20 42 20 50 0 8 9 30 20 50 11 20 20 42 20 50 0 8 9 30 20 50 11 20 20 42 20 50 0 8 9 30 20 50 19 34 20 54 20 620 0 378 -4 586 -10 590 -5 3 -10 26 -10 50 0 24 -4 47 -10 50 -5 3 -10 26 -10 50 0 24 -4 47 -10 50 -5 3 -10 26 -10 50 0 24 -4 47 -10 50 -5 3 -10 19 -10 35 0 16 -9 45 -20 65 -11 20 -20 42 -20 50 0 8 -9 30 -20 50 -11 20 -20 42 -20 49 0 8 -13 40 -30 71 -16 31 -30 63 -30 71 0 7 -9 29 -20 49 -11 20 -20 42 -20 50 0 8 -9 30 -20 50 -11 20 -20 41 -20 48 0 7 -90 193 -201 413 -159 318 -206 404 -227 415 -15 8 -40 26 -56 42 -16 15 -35 27 -42 27 -8 0 -14 4 -14 8 0 5 -12 15 -27 23 -16 8 -37 22 -47 32 -11 9 -23 17 -28 17 -4 0 -22 14 -40 30 -17 17 -37 30 -44 30 -8 0 -14 4 -14 8 0 5 -12 15 -27 23 -16 8 -37 22 -47 32 -11 9 -24 17 -29 17 -5 0 -17 9 -27 20 -21 24 -126 80 -150 80 -11 0 -22 5 -25 10 -3 6 -15 10 -25 10 -11 0 -35 9 -55 20 -20 11 -44 20 -55 20 -10 0 -22 5 -25 10 -3 6 -17 10 -30 10 -13 0 -27 5 -30 10 -3 6 -17 10 -30 10 -13 0 -27 5 -30 10 -3 6 -15 10 -25 10 -11 0 -35 9 -55 20 -20 11 -44 20 -55 20 -10 0 -22 5 -25 10 -3 6 -15 10 -26 10 -43 0 -49 20 -49 174 0 86 4 147 10 151 6 4 10 125 10 330 0 205 4 326 10 330 6 4 10 125 10 330 0 205 4 326 10 330 6 4 10 73 10 175 l0 169 -105 106 c-58 58 -112 105 -120 105 -8 0 -15 4 -15 8 0 5 -12 15 -27 23 -15 8 -41 26 -57 42 -16 15 -33 27 -38 27 -5 0 -18 9 -30 20 -12 11 -28 20 -35 20 -7 0 -13 4 -13 8 0 12 -78 52 -100 52 -11 0 -22 5 -25 10 -3 6 -21 10 -40 10 -19 0 -37 5 -40 10 -3 6 -26 10 -50 10 -24 0 -47 5 -50 10 -3 6 -21 10 -40 10 -19 0 -37 5 -40 10 -14 23 -69 3 -243 -85z"/>
 </g>

</svg>